<mxfile host="app.diagrams.net" agent="Mozilla/5.0 (Windows NT 10.0; Win64; x64) AppleWebKit/537.36 (KHTML, like Gecko) Chrome/129.0.0.0 Safari/537.36" version="24.7.17">
  <diagram name="Page-1" id="CB2936_osHA1R2oFcFgb">
    <mxGraphModel grid="1" page="1" gridSize="10" guides="1" tooltips="1" connect="1" arrows="1" fold="1" pageScale="1" pageWidth="850" pageHeight="1100" math="0" shadow="0">
      <root>
        <mxCell id="0" />
        <mxCell id="1" parent="0" />
        <mxCell id="aov5soqvxYVlyX3A8pP1-3" value="Usuario" style="swimlane;whiteSpace=wrap;html=1;" vertex="1" parent="1">
          <mxGeometry x="-230" y="-100" width="520" height="1450" as="geometry" />
        </mxCell>
        <mxCell id="l6iJgMCDwVrJFgPdgeQh-7" style="edgeStyle=orthogonalEdgeStyle;rounded=0;orthogonalLoop=1;jettySize=auto;html=1;entryX=0.5;entryY=0;entryDx=0;entryDy=0;" edge="1" parent="aov5soqvxYVlyX3A8pP1-3" source="aov5soqvxYVlyX3A8pP1-6" target="l6iJgMCDwVrJFgPdgeQh-5">
          <mxGeometry relative="1" as="geometry" />
        </mxCell>
        <mxCell id="aov5soqvxYVlyX3A8pP1-6" value="" style="ellipse;" vertex="1" parent="aov5soqvxYVlyX3A8pP1-3">
          <mxGeometry x="232.5" y="50" width="55" height="50" as="geometry" />
        </mxCell>
        <mxCell id="aov5soqvxYVlyX3A8pP1-7" value="Iniciar Sesion" style="html=1;align=center;verticalAlign=top;rounded=1;absoluteArcSize=1;arcSize=10;dashed=0;whiteSpace=wrap;" vertex="1" parent="aov5soqvxYVlyX3A8pP1-3">
          <mxGeometry x="190" y="320" width="140" height="40" as="geometry" />
        </mxCell>
        <mxCell id="aov5soqvxYVlyX3A8pP1-20" style="edgeStyle=orthogonalEdgeStyle;rounded=0;orthogonalLoop=1;jettySize=auto;html=1;entryX=0.5;entryY=0;entryDx=0;entryDy=0;" edge="1" parent="aov5soqvxYVlyX3A8pP1-3" source="aov5soqvxYVlyX3A8pP1-17" target="aov5soqvxYVlyX3A8pP1-19">
          <mxGeometry relative="1" as="geometry" />
        </mxCell>
        <mxCell id="aov5soqvxYVlyX3A8pP1-17" value="Crear habito" style="html=1;align=center;verticalAlign=top;rounded=1;absoluteArcSize=1;arcSize=10;dashed=0;whiteSpace=wrap;" vertex="1" parent="aov5soqvxYVlyX3A8pP1-3">
          <mxGeometry x="190" y="540" width="140" height="40" as="geometry" />
        </mxCell>
        <mxCell id="aov5soqvxYVlyX3A8pP1-22" style="edgeStyle=orthogonalEdgeStyle;rounded=0;orthogonalLoop=1;jettySize=auto;html=1;entryX=0.5;entryY=0;entryDx=0;entryDy=0;" edge="1" parent="aov5soqvxYVlyX3A8pP1-3" source="aov5soqvxYVlyX3A8pP1-19" target="aov5soqvxYVlyX3A8pP1-21">
          <mxGeometry relative="1" as="geometry" />
        </mxCell>
        <mxCell id="aov5soqvxYVlyX3A8pP1-19" value="Crear categoria" style="html=1;align=center;verticalAlign=top;rounded=1;absoluteArcSize=1;arcSize=10;dashed=0;whiteSpace=wrap;" vertex="1" parent="aov5soqvxYVlyX3A8pP1-3">
          <mxGeometry x="190" y="630" width="140" height="40" as="geometry" />
        </mxCell>
        <mxCell id="aov5soqvxYVlyX3A8pP1-21" value="Seleccionar dificultad" style="html=1;align=center;verticalAlign=top;rounded=1;absoluteArcSize=1;arcSize=10;dashed=0;whiteSpace=wrap;" vertex="1" parent="aov5soqvxYVlyX3A8pP1-3">
          <mxGeometry x="190" y="720" width="140" height="40" as="geometry" />
        </mxCell>
        <mxCell id="aov5soqvxYVlyX3A8pP1-36" style="edgeStyle=orthogonalEdgeStyle;rounded=0;orthogonalLoop=1;jettySize=auto;html=1;entryX=0.5;entryY=0;entryDx=0;entryDy=0;" edge="1" parent="aov5soqvxYVlyX3A8pP1-3" source="aov5soqvxYVlyX3A8pP1-33" target="aov5soqvxYVlyX3A8pP1-35">
          <mxGeometry relative="1" as="geometry" />
        </mxCell>
        <mxCell id="aov5soqvxYVlyX3A8pP1-33" value="Recibir sugerencia y aceptar" style="html=1;align=center;verticalAlign=top;rounded=1;absoluteArcSize=1;arcSize=10;dashed=0;whiteSpace=wrap;" vertex="1" parent="aov5soqvxYVlyX3A8pP1-3">
          <mxGeometry x="190" y="970" width="140" height="40" as="geometry" />
        </mxCell>
        <mxCell id="aov5soqvxYVlyX3A8pP1-35" value="Iniciar pomodoro" style="html=1;align=center;verticalAlign=top;rounded=1;absoluteArcSize=1;arcSize=10;dashed=0;whiteSpace=wrap;" vertex="1" parent="aov5soqvxYVlyX3A8pP1-3">
          <mxGeometry x="190" y="1070" width="140" height="40" as="geometry" />
        </mxCell>
        <mxCell id="aov5soqvxYVlyX3A8pP1-47" style="edgeStyle=orthogonalEdgeStyle;rounded=0;orthogonalLoop=1;jettySize=auto;html=1;entryX=0.5;entryY=0;entryDx=0;entryDy=0;" edge="1" parent="aov5soqvxYVlyX3A8pP1-3" source="aov5soqvxYVlyX3A8pP1-44" target="aov5soqvxYVlyX3A8pP1-46">
          <mxGeometry relative="1" as="geometry" />
        </mxCell>
        <mxCell id="aov5soqvxYVlyX3A8pP1-44" value="Salir de app" style="html=1;align=center;verticalAlign=top;rounded=1;absoluteArcSize=1;arcSize=10;dashed=0;whiteSpace=wrap;" vertex="1" parent="aov5soqvxYVlyX3A8pP1-3">
          <mxGeometry x="190" y="1220" width="140" height="40" as="geometry" />
        </mxCell>
        <mxCell id="aov5soqvxYVlyX3A8pP1-46" value="" style="shape=sumEllipse;perimeter=ellipsePerimeter;html=1;backgroundOutline=1;" vertex="1" parent="aov5soqvxYVlyX3A8pP1-3">
          <mxGeometry x="235" y="1330" width="50" height="50" as="geometry" />
        </mxCell>
        <mxCell id="l6iJgMCDwVrJFgPdgeQh-6" style="edgeStyle=orthogonalEdgeStyle;rounded=0;orthogonalLoop=1;jettySize=auto;html=1;entryX=0.5;entryY=0;entryDx=0;entryDy=0;" edge="1" parent="aov5soqvxYVlyX3A8pP1-3" source="l6iJgMCDwVrJFgPdgeQh-5" target="aov5soqvxYVlyX3A8pP1-7">
          <mxGeometry relative="1" as="geometry" />
        </mxCell>
        <mxCell id="l6iJgMCDwVrJFgPdgeQh-8" value="Si" style="edgeLabel;html=1;align=center;verticalAlign=middle;resizable=0;points=[];" connectable="0" vertex="1" parent="l6iJgMCDwVrJFgPdgeQh-6">
          <mxGeometry x="-0.46" y="2" relative="1" as="geometry">
            <mxPoint as="offset" />
          </mxGeometry>
        </mxCell>
        <mxCell id="l6iJgMCDwVrJFgPdgeQh-10" style="edgeStyle=orthogonalEdgeStyle;rounded=0;orthogonalLoop=1;jettySize=auto;html=1;entryX=1;entryY=0.5;entryDx=0;entryDy=0;" edge="1" parent="aov5soqvxYVlyX3A8pP1-3" source="l6iJgMCDwVrJFgPdgeQh-5" target="l6iJgMCDwVrJFgPdgeQh-9">
          <mxGeometry relative="1" as="geometry" />
        </mxCell>
        <mxCell id="l6iJgMCDwVrJFgPdgeQh-12" value="No" style="edgeLabel;html=1;align=center;verticalAlign=middle;resizable=0;points=[];" connectable="0" vertex="1" parent="l6iJgMCDwVrJFgPdgeQh-10">
          <mxGeometry x="-0.2632" y="-3" relative="1" as="geometry">
            <mxPoint x="-1" as="offset" />
          </mxGeometry>
        </mxCell>
        <mxCell id="l6iJgMCDwVrJFgPdgeQh-5" value="¿Cuenta &#xa;creada?" style="rhombus;" vertex="1" parent="aov5soqvxYVlyX3A8pP1-3">
          <mxGeometry x="217.5" y="140" width="85" height="80" as="geometry" />
        </mxCell>
        <mxCell id="l6iJgMCDwVrJFgPdgeQh-11" style="edgeStyle=orthogonalEdgeStyle;rounded=0;orthogonalLoop=1;jettySize=auto;html=1;entryX=0;entryY=0.5;entryDx=0;entryDy=0;" edge="1" parent="aov5soqvxYVlyX3A8pP1-3" source="l6iJgMCDwVrJFgPdgeQh-9" target="aov5soqvxYVlyX3A8pP1-7">
          <mxGeometry relative="1" as="geometry">
            <Array as="points">
              <mxPoint x="100" y="340" />
            </Array>
          </mxGeometry>
        </mxCell>
        <mxCell id="l6iJgMCDwVrJFgPdgeQh-9" value="Crear Cuenta" style="html=1;align=center;verticalAlign=top;rounded=1;absoluteArcSize=1;arcSize=10;dashed=0;whiteSpace=wrap;" vertex="1" parent="aov5soqvxYVlyX3A8pP1-3">
          <mxGeometry x="30" y="160" width="140" height="40" as="geometry" />
        </mxCell>
        <mxCell id="aov5soqvxYVlyX3A8pP1-4" value="Base de datos" style="swimlane;whiteSpace=wrap;html=1;startSize=23;" vertex="1" parent="1">
          <mxGeometry x="290" y="-100" width="520" height="1450" as="geometry" />
        </mxCell>
        <mxCell id="l6iJgMCDwVrJFgPdgeQh-3" style="edgeStyle=orthogonalEdgeStyle;rounded=0;orthogonalLoop=1;jettySize=auto;html=1;entryX=0.5;entryY=1;entryDx=0;entryDy=0;" edge="1" parent="aov5soqvxYVlyX3A8pP1-4" source="aov5soqvxYVlyX3A8pP1-9" target="l6iJgMCDwVrJFgPdgeQh-2">
          <mxGeometry relative="1" as="geometry" />
        </mxCell>
        <mxCell id="l6iJgMCDwVrJFgPdgeQh-4" value="No" style="edgeLabel;html=1;align=center;verticalAlign=middle;resizable=0;points=[];" connectable="0" vertex="1" parent="l6iJgMCDwVrJFgPdgeQh-3">
          <mxGeometry x="0.0056" relative="1" as="geometry">
            <mxPoint as="offset" />
          </mxGeometry>
        </mxCell>
        <mxCell id="aov5soqvxYVlyX3A8pP1-9" value="¿Cuenta &#xa;verificada?" style="rhombus;" vertex="1" parent="aov5soqvxYVlyX3A8pP1-4">
          <mxGeometry x="217.5" y="300" width="85" height="80" as="geometry" />
        </mxCell>
        <mxCell id="l6iJgMCDwVrJFgPdgeQh-2" value="" style="shape=sumEllipse;perimeter=ellipsePerimeter;html=1;backgroundOutline=1;" vertex="1" parent="aov5soqvxYVlyX3A8pP1-4">
          <mxGeometry x="231.5" y="160" width="57" height="50" as="geometry" />
        </mxCell>
        <mxCell id="l6iJgMCDwVrJFgPdgeQh-13" value="¿Habito&#xa;creado?" style="rhombus;" vertex="1" parent="aov5soqvxYVlyX3A8pP1-4">
          <mxGeometry x="217.5" y="460" width="85" height="80" as="geometry" />
        </mxCell>
        <mxCell id="aov5soqvxYVlyX3A8pP1-23" value="Guardar en base de datos" style="html=1;align=center;verticalAlign=top;rounded=1;absoluteArcSize=1;arcSize=10;dashed=0;whiteSpace=wrap;" vertex="1" parent="aov5soqvxYVlyX3A8pP1-4">
          <mxGeometry x="180" y="720" width="140" height="40" as="geometry" />
        </mxCell>
        <mxCell id="aov5soqvxYVlyX3A8pP1-31" value="Enviar sugerencia hecha con IA&amp;nbsp;" style="html=1;align=center;verticalAlign=top;rounded=1;absoluteArcSize=1;arcSize=10;dashed=0;whiteSpace=wrap;" vertex="1" parent="aov5soqvxYVlyX3A8pP1-4">
          <mxGeometry x="190" y="890" width="140" height="40" as="geometry" />
        </mxCell>
        <mxCell id="aov5soqvxYVlyX3A8pP1-5" value="App" style="swimlane;whiteSpace=wrap;html=1;" vertex="1" parent="1">
          <mxGeometry x="810" y="-100" width="520" height="1450" as="geometry" />
        </mxCell>
        <mxCell id="aov5soqvxYVlyX3A8pP1-11" value="Menu App" style="html=1;align=center;verticalAlign=top;rounded=1;absoluteArcSize=1;arcSize=10;dashed=0;whiteSpace=wrap;" vertex="1" parent="aov5soqvxYVlyX3A8pP1-5">
          <mxGeometry x="180" y="320" width="140" height="40" as="geometry" />
        </mxCell>
        <mxCell id="aov5soqvxYVlyX3A8pP1-25" value="Mostrar habito en lista" style="html=1;align=center;verticalAlign=top;rounded=1;absoluteArcSize=1;arcSize=10;dashed=0;whiteSpace=wrap;" vertex="1" parent="aov5soqvxYVlyX3A8pP1-5">
          <mxGeometry x="190" y="720" width="140" height="40" as="geometry" />
        </mxCell>
        <mxCell id="aov5soqvxYVlyX3A8pP1-29" value="Mostrar dashboard" style="html=1;align=center;verticalAlign=top;rounded=1;absoluteArcSize=1;arcSize=10;dashed=0;whiteSpace=wrap;" vertex="1" parent="aov5soqvxYVlyX3A8pP1-5">
          <mxGeometry x="190" y="890" width="140" height="40" as="geometry" />
        </mxCell>
        <mxCell id="aov5soqvxYVlyX3A8pP1-30" style="edgeStyle=orthogonalEdgeStyle;rounded=0;orthogonalLoop=1;jettySize=auto;html=1;entryX=0.5;entryY=0;entryDx=0;entryDy=0;" edge="1" parent="aov5soqvxYVlyX3A8pP1-5" source="aov5soqvxYVlyX3A8pP1-25" target="aov5soqvxYVlyX3A8pP1-29">
          <mxGeometry relative="1" as="geometry" />
        </mxCell>
        <mxCell id="aov5soqvxYVlyX3A8pP1-37" value="Comenzar temporizador" style="html=1;align=center;verticalAlign=top;rounded=1;absoluteArcSize=1;arcSize=10;dashed=0;whiteSpace=wrap;" vertex="1" parent="aov5soqvxYVlyX3A8pP1-5">
          <mxGeometry x="190" y="1070" width="140" height="40" as="geometry" />
        </mxCell>
        <mxCell id="aov5soqvxYVlyX3A8pP1-10" style="edgeStyle=orthogonalEdgeStyle;rounded=0;orthogonalLoop=1;jettySize=auto;html=1;entryX=0;entryY=0.5;entryDx=0;entryDy=0;" edge="1" parent="1" source="aov5soqvxYVlyX3A8pP1-7" target="aov5soqvxYVlyX3A8pP1-9">
          <mxGeometry relative="1" as="geometry" />
        </mxCell>
        <mxCell id="aov5soqvxYVlyX3A8pP1-16" style="edgeStyle=orthogonalEdgeStyle;rounded=0;orthogonalLoop=1;jettySize=auto;html=1;entryX=0;entryY=0.5;entryDx=0;entryDy=0;" edge="1" parent="1" source="aov5soqvxYVlyX3A8pP1-9" target="aov5soqvxYVlyX3A8pP1-11">
          <mxGeometry relative="1" as="geometry" />
        </mxCell>
        <mxCell id="l6iJgMCDwVrJFgPdgeQh-1" value="Si" style="edgeLabel;html=1;align=center;verticalAlign=middle;resizable=0;points=[];" connectable="0" vertex="1" parent="aov5soqvxYVlyX3A8pP1-16">
          <mxGeometry x="-0.7648" y="1" relative="1" as="geometry">
            <mxPoint as="offset" />
          </mxGeometry>
        </mxCell>
        <mxCell id="l6iJgMCDwVrJFgPdgeQh-14" style="edgeStyle=orthogonalEdgeStyle;rounded=0;orthogonalLoop=1;jettySize=auto;html=1;entryX=0.5;entryY=0;entryDx=0;entryDy=0;" edge="1" parent="1" source="l6iJgMCDwVrJFgPdgeQh-13" target="aov5soqvxYVlyX3A8pP1-17">
          <mxGeometry relative="1" as="geometry" />
        </mxCell>
        <mxCell id="l6iJgMCDwVrJFgPdgeQh-15" value="No" style="edgeLabel;html=1;align=center;verticalAlign=middle;resizable=0;points=[];" connectable="0" vertex="1" parent="l6iJgMCDwVrJFgPdgeQh-14">
          <mxGeometry x="-0.9316" y="-3" relative="1" as="geometry">
            <mxPoint as="offset" />
          </mxGeometry>
        </mxCell>
        <mxCell id="aov5soqvxYVlyX3A8pP1-24" style="edgeStyle=orthogonalEdgeStyle;rounded=0;orthogonalLoop=1;jettySize=auto;html=1;entryX=0;entryY=0.5;entryDx=0;entryDy=0;" edge="1" parent="1" source="aov5soqvxYVlyX3A8pP1-21" target="aov5soqvxYVlyX3A8pP1-23">
          <mxGeometry relative="1" as="geometry" />
        </mxCell>
        <mxCell id="aov5soqvxYVlyX3A8pP1-26" style="edgeStyle=orthogonalEdgeStyle;rounded=0;orthogonalLoop=1;jettySize=auto;html=1;entryX=0;entryY=0.5;entryDx=0;entryDy=0;" edge="1" parent="1" source="aov5soqvxYVlyX3A8pP1-23" target="aov5soqvxYVlyX3A8pP1-25">
          <mxGeometry relative="1" as="geometry" />
        </mxCell>
        <mxCell id="l6iJgMCDwVrJFgPdgeQh-16" style="edgeStyle=orthogonalEdgeStyle;rounded=0;orthogonalLoop=1;jettySize=auto;html=1;entryX=0.5;entryY=0;entryDx=0;entryDy=0;" edge="1" parent="1" source="l6iJgMCDwVrJFgPdgeQh-13" target="aov5soqvxYVlyX3A8pP1-25">
          <mxGeometry relative="1" as="geometry" />
        </mxCell>
        <mxCell id="l6iJgMCDwVrJFgPdgeQh-18" value="Si" style="edgeLabel;html=1;align=center;verticalAlign=middle;resizable=0;points=[];" connectable="0" vertex="1" parent="l6iJgMCDwVrJFgPdgeQh-16">
          <mxGeometry x="-0.8435" y="-4" relative="1" as="geometry">
            <mxPoint x="1" as="offset" />
          </mxGeometry>
        </mxCell>
        <mxCell id="l6iJgMCDwVrJFgPdgeQh-17" style="edgeStyle=orthogonalEdgeStyle;rounded=0;orthogonalLoop=1;jettySize=auto;html=1;" edge="1" parent="1" source="aov5soqvxYVlyX3A8pP1-11" target="l6iJgMCDwVrJFgPdgeQh-13">
          <mxGeometry relative="1" as="geometry">
            <Array as="points">
              <mxPoint x="1060" y="330" />
              <mxPoint x="550" y="330" />
            </Array>
          </mxGeometry>
        </mxCell>
        <mxCell id="aov5soqvxYVlyX3A8pP1-32" style="edgeStyle=orthogonalEdgeStyle;rounded=0;orthogonalLoop=1;jettySize=auto;html=1;entryX=1;entryY=0.5;entryDx=0;entryDy=0;" edge="1" parent="1" source="aov5soqvxYVlyX3A8pP1-29" target="aov5soqvxYVlyX3A8pP1-31">
          <mxGeometry relative="1" as="geometry" />
        </mxCell>
        <mxCell id="aov5soqvxYVlyX3A8pP1-34" style="edgeStyle=orthogonalEdgeStyle;rounded=0;orthogonalLoop=1;jettySize=auto;html=1;entryX=0.5;entryY=0;entryDx=0;entryDy=0;" edge="1" parent="1" source="aov5soqvxYVlyX3A8pP1-31" target="aov5soqvxYVlyX3A8pP1-33">
          <mxGeometry relative="1" as="geometry" />
        </mxCell>
        <mxCell id="aov5soqvxYVlyX3A8pP1-39" style="edgeStyle=orthogonalEdgeStyle;rounded=0;orthogonalLoop=1;jettySize=auto;html=1;entryX=0;entryY=0.5;entryDx=0;entryDy=0;" edge="1" parent="1" source="aov5soqvxYVlyX3A8pP1-35" target="aov5soqvxYVlyX3A8pP1-37">
          <mxGeometry relative="1" as="geometry" />
        </mxCell>
        <mxCell id="aov5soqvxYVlyX3A8pP1-45" style="edgeStyle=orthogonalEdgeStyle;rounded=0;orthogonalLoop=1;jettySize=auto;html=1;entryX=1;entryY=0.5;entryDx=0;entryDy=0;" edge="1" parent="1" source="aov5soqvxYVlyX3A8pP1-37" target="aov5soqvxYVlyX3A8pP1-44">
          <mxGeometry relative="1" as="geometry">
            <Array as="points">
              <mxPoint x="1070" y="1140" />
            </Array>
          </mxGeometry>
        </mxCell>
      </root>
    </mxGraphModel>
  </diagram>
</mxfile>
